<mxfile host="app.diagrams.net" agent="Mozilla/5.0 (Macintosh; Intel Mac OS X 10_15_7) AppleWebKit/537.36 (KHTML, like Gecko) Chrome/128.0.0.0 Safari/537.36" version="24.8.4">
  <diagram name="Page-1" id="7a6c530e-6e37-e111-ec74-82921da8cc10">
    <mxGraphModel dx="1368" dy="880" grid="1" gridSize="10" guides="1" tooltips="1" connect="1" arrows="1" fold="1" page="1" pageScale="1.5" pageWidth="1169" pageHeight="826" background="#f7f7f7" math="0" shadow="0">
      <root>
        <mxCell id="0" style=";html=1;" />
        <mxCell id="1" style=";html=1;" parent="0" />
        <mxCell id="8eia7dRKYV1MIN9JtzGO-25" value="" style="whiteSpace=wrap;html=1;aspect=fixed;fillColor=#ffe6cc;strokeColor=#d79b00;movable=0;resizable=0;rotatable=0;deletable=0;editable=0;locked=1;connectable=0;" vertex="1" parent="1">
          <mxGeometry x="750" y="310" width="500" height="500" as="geometry" />
        </mxCell>
        <mxCell id="8eia7dRKYV1MIN9JtzGO-8" value="&lt;div&gt;Books server&lt;/div&gt;" style="image;html=1;image=img/lib/clip_art/computers/Server_Tower_128x128.png;movable=0;resizable=0;rotatable=0;deletable=0;editable=0;locked=1;connectable=0;" vertex="1" parent="1">
          <mxGeometry x="1110" y="440" width="80" height="80" as="geometry" />
        </mxCell>
        <mxCell id="8eia7dRKYV1MIN9JtzGO-9" value="&lt;div&gt;Invoice Server&lt;/div&gt;" style="image;html=1;image=img/lib/clip_art/computers/Server_Tower_128x128.png;movable=0;resizable=0;rotatable=0;deletable=0;editable=0;locked=1;connectable=0;" vertex="1" parent="1">
          <mxGeometry x="980" y="430" width="80" height="80" as="geometry" />
        </mxCell>
        <mxCell id="8eia7dRKYV1MIN9JtzGO-10" value="&lt;div&gt;&lt;b&gt;Inventory server&lt;/b&gt;&lt;/div&gt;" style="image;html=1;image=img/lib/clip_art/computers/Server_Tower_128x128.png;movable=0;resizable=0;rotatable=0;deletable=0;editable=0;locked=1;connectable=0;" vertex="1" parent="1">
          <mxGeometry x="840" y="430" width="80" height="80" as="geometry" />
        </mxCell>
        <mxCell id="8eia7dRKYV1MIN9JtzGO-11" value="&lt;div&gt;Expense server&lt;/div&gt;" style="image;html=1;image=img/lib/clip_art/computers/Server_Tower_128x128.png;movable=0;resizable=0;rotatable=0;deletable=0;editable=0;locked=1;connectable=0;" vertex="1" parent="1">
          <mxGeometry x="840" y="630" width="80" height="81" as="geometry" />
        </mxCell>
        <mxCell id="8eia7dRKYV1MIN9JtzGO-12" value="&lt;div&gt;Billing server&lt;/div&gt;" style="image;html=1;image=img/lib/clip_art/computers/Server_Tower_128x128.png;movable=0;resizable=0;rotatable=0;deletable=0;editable=0;locked=1;connectable=0;" vertex="1" parent="1">
          <mxGeometry x="960" y="631" width="80" height="80" as="geometry" />
        </mxCell>
        <mxCell id="8eia7dRKYV1MIN9JtzGO-13" value="&lt;div&gt;Other products&lt;/div&gt;" style="image;html=1;image=img/lib/clip_art/computers/Server_Tower_128x128.png;movable=0;resizable=0;rotatable=0;deletable=0;editable=0;locked=1;connectable=0;" vertex="1" parent="1">
          <mxGeometry x="1100" y="630" width="80" height="80" as="geometry" />
        </mxCell>
        <mxCell id="8eia7dRKYV1MIN9JtzGO-26" value="&lt;h1&gt;&lt;b&gt;ZB Repo&lt;/b&gt;&lt;/h1&gt;" style="text;html=1;align=center;verticalAlign=middle;whiteSpace=wrap;rounded=0;movable=0;resizable=0;rotatable=0;deletable=0;editable=0;locked=1;connectable=0;" vertex="1" parent="1">
          <mxGeometry x="920" y="350" width="180" height="40" as="geometry" />
        </mxCell>
        <mxCell id="8eia7dRKYV1MIN9JtzGO-29" value="" style="shape=flexArrow;endArrow=classic;html=1;rounded=0;" edge="1" parent="1">
          <mxGeometry width="50" height="50" relative="1" as="geometry">
            <mxPoint x="1270" y="580" as="sourcePoint" />
            <mxPoint x="1440" y="580" as="targetPoint" />
          </mxGeometry>
        </mxCell>
        <mxCell id="8eia7dRKYV1MIN9JtzGO-30" value="" style="rounded=0;whiteSpace=wrap;html=1;" vertex="1" parent="1">
          <mxGeometry x="1490" y="255.71" width="752.4" height="580" as="geometry" />
        </mxCell>
        <mxCell id="8eia7dRKYV1MIN9JtzGO-31" value="Books server" style="image;html=1;image=img/lib/clip_art/computers/Server_Tower_128x128.png" vertex="1" parent="1">
          <mxGeometry x="1580" y="420" width="80" height="80" as="geometry" />
        </mxCell>
        <mxCell id="8eia7dRKYV1MIN9JtzGO-32" value="Expense server" style="image;html=1;image=img/lib/clip_art/computers/Server_Tower_128x128.png" vertex="1" parent="1">
          <mxGeometry x="2060" y="410" width="80" height="80" as="geometry" />
        </mxCell>
        <mxCell id="8eia7dRKYV1MIN9JtzGO-33" value="Inventory server" style="image;html=1;image=img/lib/clip_art/computers/Server_Tower_128x128.png" vertex="1" parent="1">
          <mxGeometry x="1820" y="350" width="80" height="80" as="geometry" />
        </mxCell>
        <mxCell id="8eia7dRKYV1MIN9JtzGO-34" value="Invoice server" style="image;html=1;image=img/lib/clip_art/computers/Server_Tower_128x128.png" vertex="1" parent="1">
          <mxGeometry x="1660" y="650" width="80" height="80" as="geometry" />
        </mxCell>
        <mxCell id="8eia7dRKYV1MIN9JtzGO-35" value="Billing server" style="image;html=1;image=img/lib/clip_art/computers/Server_Tower_128x128.png" vertex="1" parent="1">
          <mxGeometry x="2010" y="640" width="80" height="80" as="geometry" />
        </mxCell>
        <mxCell id="8eia7dRKYV1MIN9JtzGO-36" value="Events stream server" style="image;aspect=fixed;perimeter=ellipsePerimeter;html=1;align=center;shadow=0;dashed=0;spacingTop=3;image=img/lib/active_directory/generic_server.svg;" vertex="1" parent="1">
          <mxGeometry x="1860" y="510.00000000000006" width="40" height="71.43" as="geometry" />
        </mxCell>
        <mxCell id="8eia7dRKYV1MIN9JtzGO-38" value="Platform server" style="image;aspect=fixed;perimeter=ellipsePerimeter;html=1;align=center;shadow=0;dashed=0;spacingTop=3;image=img/lib/active_directory/generic_server.svg;" vertex="1" parent="1">
          <mxGeometry x="1860" y="680" width="44.8" height="80" as="geometry" />
        </mxCell>
        <mxCell id="8eia7dRKYV1MIN9JtzGO-39" value="ONDC server" style="image;aspect=fixed;perimeter=ellipsePerimeter;html=1;align=center;shadow=0;dashed=0;spacingTop=3;image=img/lib/active_directory/generic_server.svg;" vertex="1" parent="1">
          <mxGeometry x="1610" y="550" width="29.6" height="52.86" as="geometry" />
        </mxCell>
        <mxCell id="8eia7dRKYV1MIN9JtzGO-40" value="Integration server&lt;div&gt;&lt;br&gt;&lt;/div&gt;" style="image;aspect=fixed;perimeter=ellipsePerimeter;html=1;align=center;shadow=0;dashed=0;spacingTop=3;image=img/lib/active_directory/generic_server.svg;" vertex="1" parent="1">
          <mxGeometry x="2130" y="552.86" width="28" height="50" as="geometry" />
        </mxCell>
        <mxCell id="8eia7dRKYV1MIN9JtzGO-42" value="" style="shape=flexArrow;endArrow=classic;html=1;rounded=0;entryX=0.75;entryY=1;entryDx=0;entryDy=0;" edge="1" parent="1" source="8eia7dRKYV1MIN9JtzGO-36" target="8eia7dRKYV1MIN9JtzGO-33">
          <mxGeometry width="50" height="50" relative="1" as="geometry">
            <mxPoint x="1880" y="510" as="sourcePoint" />
            <mxPoint x="1880" y="440" as="targetPoint" />
          </mxGeometry>
        </mxCell>
        <mxCell id="8eia7dRKYV1MIN9JtzGO-43" value="" style="shape=flexArrow;endArrow=classic;html=1;rounded=0;entryX=0;entryY=0.75;entryDx=0;entryDy=0;exitX=1;exitY=0.5;exitDx=0;exitDy=0;" edge="1" parent="1" source="8eia7dRKYV1MIN9JtzGO-36" target="8eia7dRKYV1MIN9JtzGO-32">
          <mxGeometry width="50" height="50" relative="1" as="geometry">
            <mxPoint x="1930" y="540" as="sourcePoint" />
            <mxPoint x="1980" y="490" as="targetPoint" />
          </mxGeometry>
        </mxCell>
        <mxCell id="8eia7dRKYV1MIN9JtzGO-44" value="" style="shape=flexArrow;endArrow=classic;html=1;rounded=0;exitX=0;exitY=0.5;exitDx=0;exitDy=0;" edge="1" parent="1" source="8eia7dRKYV1MIN9JtzGO-36" target="8eia7dRKYV1MIN9JtzGO-31">
          <mxGeometry width="50" height="50" relative="1" as="geometry">
            <mxPoint x="1800" y="520" as="sourcePoint" />
            <mxPoint x="1850" y="470" as="targetPoint" />
          </mxGeometry>
        </mxCell>
        <mxCell id="8eia7dRKYV1MIN9JtzGO-45" value="" style="shape=flexArrow;endArrow=classic;html=1;rounded=0;entryX=0;entryY=0.5;entryDx=0;entryDy=0;exitX=1;exitY=1;exitDx=0;exitDy=0;" edge="1" parent="1" source="8eia7dRKYV1MIN9JtzGO-36" target="8eia7dRKYV1MIN9JtzGO-40">
          <mxGeometry width="50" height="50" relative="1" as="geometry">
            <mxPoint x="1904.8" y="600" as="sourcePoint" />
            <mxPoint x="1954.8" y="550" as="targetPoint" />
          </mxGeometry>
        </mxCell>
        <mxCell id="8eia7dRKYV1MIN9JtzGO-46" value="" style="shape=flexArrow;endArrow=classic;html=1;rounded=0;exitX=0;exitY=0.75;exitDx=0;exitDy=0;entryX=1;entryY=0.5;entryDx=0;entryDy=0;" edge="1" parent="1" source="8eia7dRKYV1MIN9JtzGO-36" target="8eia7dRKYV1MIN9JtzGO-39">
          <mxGeometry width="50" height="50" relative="1" as="geometry">
            <mxPoint x="1780" y="580" as="sourcePoint" />
            <mxPoint x="1810" y="540" as="targetPoint" />
          </mxGeometry>
        </mxCell>
        <mxCell id="8eia7dRKYV1MIN9JtzGO-47" value="" style="shape=flexArrow;endArrow=classic;html=1;rounded=0;entryX=1;entryY=0.25;entryDx=0;entryDy=0;" edge="1" parent="1" target="8eia7dRKYV1MIN9JtzGO-34">
          <mxGeometry width="50" height="50" relative="1" as="geometry">
            <mxPoint x="1860" y="580" as="sourcePoint" />
            <mxPoint x="1804" y="619" as="targetPoint" />
          </mxGeometry>
        </mxCell>
        <mxCell id="8eia7dRKYV1MIN9JtzGO-51" value="Text" style="edgeLabel;html=1;align=center;verticalAlign=middle;resizable=0;points=[];" vertex="1" connectable="0" parent="8eia7dRKYV1MIN9JtzGO-47">
          <mxGeometry x="-0.6428" y="1" relative="1" as="geometry">
            <mxPoint x="-1" as="offset" />
          </mxGeometry>
        </mxCell>
        <mxCell id="8eia7dRKYV1MIN9JtzGO-48" value="" style="shape=flexArrow;endArrow=classic;html=1;rounded=0;entryX=0;entryY=0;entryDx=0;entryDy=0;exitX=0.25;exitY=1;exitDx=0;exitDy=0;" edge="1" parent="1" source="8eia7dRKYV1MIN9JtzGO-36" target="8eia7dRKYV1MIN9JtzGO-38">
          <mxGeometry width="50" height="50" relative="1" as="geometry">
            <mxPoint x="1780" y="610" as="sourcePoint" />
            <mxPoint x="1830" y="560" as="targetPoint" />
          </mxGeometry>
        </mxCell>
        <mxCell id="8eia7dRKYV1MIN9JtzGO-49" value="" style="shape=flexArrow;endArrow=classic;html=1;rounded=0;entryX=0;entryY=0;entryDx=0;entryDy=0;exitX=0.5;exitY=1;exitDx=0;exitDy=0;" edge="1" parent="1" source="8eia7dRKYV1MIN9JtzGO-36" target="8eia7dRKYV1MIN9JtzGO-35">
          <mxGeometry width="50" height="50" relative="1" as="geometry">
            <mxPoint x="1930" y="631" as="sourcePoint" />
            <mxPoint x="1980" y="581" as="targetPoint" />
          </mxGeometry>
        </mxCell>
        <mxCell id="8eia7dRKYV1MIN9JtzGO-54" value="&lt;h1&gt;Seperate Repo and build process&lt;/h1&gt;" style="text;html=1;align=center;verticalAlign=middle;whiteSpace=wrap;rounded=0;" vertex="1" parent="1">
          <mxGeometry x="1672.4" y="290" width="387.6" height="30" as="geometry" />
        </mxCell>
      </root>
    </mxGraphModel>
  </diagram>
</mxfile>
